<?xml version="1.0" encoding="UTF-8"?>
<svg width="340px" height="276px" viewBox="0 0 340 276" version="1.1" xmlns="http://www.w3.org/2000/svg" xmlns:xlink="http://www.w3.org/1999/xlink">
    <!-- Generator: Sketch 47.1 (45422) - http://www.bohemiancoding.com/sketch -->
    <title>Group</title>
    <desc>Created with Sketch.</desc>
    <defs>
        <rect id="path-1" x="0" y="0" width="340" height="276"></rect>
        <rect id="path-3" x="431" y="29" width="50" height="2"></rect>
        <rect id="path-4" x="428" y="31" width="50" height="2"></rect>
        <rect id="path-5" x="429" y="75" width="50" height="2"></rect>
        <rect id="path-6" x="431" y="77" width="50" height="2"></rect>
        <linearGradient x1="38.1652687%" y1="37.9729196%" x2="7.94611045%" y2="67.6143346%" id="linearGradient-7">
            <stop stop-color="#EFF8F7" stop-opacity="0" offset="0%"></stop>
            <stop stop-color="#E8F7F5" stop-opacity="0.5" offset="100%"></stop>
        </linearGradient>
    </defs>
    <g id="Welcome" stroke="none" stroke-width="1" fill="none" fill-rule="evenodd">
        <g id="Desktop" transform="translate(-539.000000, -510.000000)">
            <g id="Group" transform="translate(539.000000, 510.000000)">
                <mask id="mask-2" fill="white">
                    <use xlink:href="#path-1"></use>
                </mask>
                <use id="Mask" fill="#483E51" xlink:href="#path-1"></use>
                <g mask="url(#mask-2)">
                    <g transform="translate(-135.000000, 101.000000)">
                        <g id="Group-3" stroke-width="1" fill="none" fill-rule="evenodd" transform="translate(0.000000, 24.000000)">
                            <path d="M406.457023,0 C421.367593,3.91638944 429.984232,7.97530154 432.30694,12.1767363 C432.693418,12.8758165 439.292135,14.0448835 442.061626,19.4827781 C443.907954,23.1080412 457.110397,67.2804485 481.668956,152 L0.331043956,151.33913 L406.457023,0 Z" id="Mask" fill="#FCF7B3"></path>
                        </g>
                        <rect id="Rectangle" fill="#523579" fill-rule="evenodd" x="176" y="138" width="65" height="25"></rect>
                        <rect id="Rectangle" fill="#523579" fill-rule="evenodd" x="176" y="87" width="43" height="43"></rect>
                        <rect id="Rectangle" fill="#523579" fill-rule="evenodd" x="193" y="57" width="65" height="75"></rect>
                        <rect id="Rectangle" fill="#E4D4FA" fill-rule="evenodd" transform="translate(265.000000, 94.500000) scale(-1, 1) translate(-265.000000, -94.500000) " x="257" y="57" width="16" height="75"></rect>
                        <polygon id="Rectangle" fill="#E4D4FA" fill-rule="evenodd" points="219 87.875 252 62 252 131 219 131"></polygon>
                        <polygon id="Rectangle" fill="#957FC6" fill-rule="evenodd" points="176 88 219.032787 88 251 63 196.286885 63"></polygon>
                        <g id="Rectangle-2" fill="none" transform="translate(456.000000, 30.000000) rotate(60.000000) translate(-456.000000, -30.000000) ">
                            <use fill="#523579" fill-rule="evenodd" xlink:href="#path-3"></use>
                            <rect stroke="#523579" stroke-width="1" x="431.5" y="29.5" width="49" height="1"></rect>
                        </g>
                        <g id="Rectangle-2" fill="none" transform="translate(453.000000, 32.000000) rotate(60.000000) translate(-453.000000, -32.000000) ">
                            <use fill="#523579" fill-rule="evenodd" xlink:href="#path-4"></use>
                            <rect stroke="#523579" stroke-width="1" x="428.5" y="31.5" width="49" height="1"></rect>
                        </g>
                        <g id="Rectangle-2" fill="none" transform="translate(454.000000, 76.000000) scale(-1, 1) rotate(60.000000) translate(-454.000000, -76.000000) ">
                            <use fill="#957FC6" fill-rule="evenodd" xlink:href="#path-5"></use>
                            <rect stroke="#E4D4FA" stroke-width="1" x="429.5" y="75.5" width="49" height="1"></rect>
                        </g>
                        <g id="Rectangle-2" fill="none" transform="translate(456.000000, 78.000000) scale(-1, 1) rotate(60.000000) translate(-456.000000, -78.000000) ">
                            <use fill="#E4D4FA" fill-rule="evenodd" xlink:href="#path-6"></use>
                            <rect stroke="#E4D4FA" stroke-width="1" x="431.5" y="77.5" width="49" height="1"></rect>
                        </g>
                        <path d="M461.321649,59.9888139 C461.5035,59.9888139 472.875891,60.0139826 473.05184,59.9888139 C475.185201,59.6836454 473.05184,57.5459117 473.05184,55.0012048 C473.05184,52.4783642 473.923812,50.3466167 471.817083,50.0135957 C471.623565,49.9830054 461.522446,50.0135957 461.321649,50.0135957 C458.934868,50.0135957 457,52.2466243 457,55.0012048 C457,57.7557853 458.934868,59.9888139 461.321649,59.9888139 Z" id="Oval-2" fill="#E4D4FA" fill-rule="evenodd"></path>
                        <circle id="Oval-2" fill="#957FC6" fill-rule="evenodd" cx="473" cy="55" r="5"></circle>
                        <path d="M437.321649,103.988814 C437.5035,103.988814 448.875891,104.013983 449.05184,103.988814 C451.185201,103.683645 449.05184,101.545912 449.05184,99.0012048 C449.05184,96.4783642 449.923812,94.3466167 447.817083,94.0135957 C447.623565,93.9830054 437.522446,94.0135957 437.321649,94.0135957 C434.934868,94.0135957 433,96.2466243 433,99.0012048 C433,101.755785 434.934868,103.988814 437.321649,103.988814 Z" id="Oval-2" fill="#E4D4FA" fill-rule="evenodd"></path>
                        <circle id="Oval-2" fill="#957FC6" fill-rule="evenodd" cx="449" cy="99" r="5"></circle>
                        <path d="M427,14.3851221 L433.448276,2.35807131 C435.93226,0.0240369546 438.277087,-0.577315584 440.482759,0.55401369 C442.68843,1.68534296 443.860844,4.09075312 444,7.77024415 L437.551724,21 L427,14.3851221 Z" id="Path-6" fill="#957FC6" fill-rule="evenodd"></path>
                        <path d="M404,23.7153356 L441.660439,43 C446.599513,30.5453209 443.718386,21.5056345 433.017059,15.8809407 C422.315732,10.2562469 412.643379,12.8677119 404,23.7153356 Z" id="Path-5" fill="#E4D4FA" fill-rule="evenodd"></path>
                        <path d="M309.081595,19.6647613 C308.468066,23.9506706 311.53571,29.4611254 310.922181,33.7470347 C310.308652,38.032944 313.376295,45.9924899 323.192753,49.0538537 C333.009211,52.1152175 332.395683,57.6256723 331.168625,61.2993089 C329.941568,64.9729455 323.192753,71.0956731 323.192753,74.7693096 C323.192753,77.2184007 324.215301,84.5656738 326.260397,96.811129 L390.680902,110.893402 C410.66844,113.144774 420.25319,118.352279 419.435152,126.515916 C418.208095,138.761371 439.763191,115.791585 426.87909,102.933857 C413.994989,90.0761286 409.700289,88.2393103 402.337946,71.7079458 C394.975602,55.1765813 395.589131,48.441581 382.70503,43.5433989 C369.820929,38.6452168 370.434457,39.2574896 363.072114,29.4611254 C355.70977,19.6647613 361.845057,12.9297609 350.188013,5.58248778 C338.530969,-1.76478533 328.100982,0.684305708 318.898053,6.19476054 C309.695124,11.7052154 309.695124,15.3788519 309.081595,19.6647613 Z" id="Path-11" fill="#3A3A3A" fill-rule="evenodd"></path>
                        <path d="M423,111 L463,111 C456.333333,104.333333 449.666667,101 443,101 C436.333333,101 429.666667,104.333333 423,111 Z" id="Path-7" fill="#E4D4FA" fill-rule="evenodd"></path>
                        <path d="M444.150386,111 L462,111 C455.434625,104.333333 448.86925,101 442.303875,101 C437.729438,101 446.612402,101.666667 447.227906,106 C447.638242,108.888889 446.612402,110.555556 444.150386,111 Z" id="Path-7" fill="#957FC6" fill-rule="evenodd"></path>
                        <path d="M318.308642,21.5685595 L320.777778,34.3836928 L320.777778,41.0963817 L323.864198,39.8758928 L326.950617,48.4193151 L334.358025,44.147604 C337.386001,48.6844958 339.032092,52.3459624 339.296296,55.132004 C339.560501,57.9180455 338.531694,60.7658529 336.209877,63.6754262 C329.248196,70.7860591 325.338731,76.0748443 324.481481,79.5417818 C323.624232,83.0087192 323.006948,96.0272674 322.62963,118.597426 L313.37037,125.92036 L301.641975,95.4081373 L293,84.4237373 L293,94.1876485 C296.581773,114.446671 300.902761,127.668634 305.962963,133.853537 C311.023165,140.038441 318.01905,140.648686 326.950617,135.684271 L335.592593,131.41256 L334.358025,132.022804 L338.061728,133.853537 L352.118832,132.72677 L383.740741,130.192071 L393,111.274493 L377.567901,72.8290929 L347.938272,55.132004 C343.128601,40.8182755 338.601852,31.2577792 334.358025,26.4505151 C330.114198,21.6432509 324.764403,20.0159323 318.308642,21.5685595 Z" id="Path-9" fill="#F0D7D7" fill-rule="evenodd"></path>
                        <rect id="Rectangle" fill="#957FC6" fill-rule="evenodd" x="404" y="111" width="75" height="17"></rect>
                        <path d="M329.751835,70.4093256 C332.898336,67.9192708 338.889412,77.6678045 345.633196,77.1767503 C349.283176,76.910974 356.210322,72.8520573 366.414634,65 L378.121951,71.3383085 L393.731707,110.343284 L383.504133,131.316148 C390.88381,136.946183 395.566776,141.047652 397.55303,143.620557 C403.561847,151.40411 403.528531,157.763774 402.439602,160.231508 C400.810745,163.922831 374.749024,163.922831 324.254441,160.231508 C323.440012,148.747393 328.326585,140.339381 338.914158,135.007471 C349.501732,129.67556 344.207945,119.216813 323.032798,103.631229 C322.875708,91.6167983 323.282923,83.8240063 324.254441,80.2528525 C325.679513,75.0145015 326.933183,72.6399295 329.751835,70.4093256 Z" id="Path-13" fill="#616161" fill-rule="evenodd"></path>
                        <rect id="Rectangle" fill="#523579" fill-rule="evenodd" x="160" y="159" width="322" height="17"></rect>
                        <path d="M346,148 L359.75,148 C360.446615,149.172414 361.071615,149.758621 361.625,149.758621 C362.178385,149.758621 362.595052,149.172414 362.875,148 L367.875,148 C368.357807,152.470047 368.357807,155.791886 367.875,157.965517 C367.392193,160.139149 366.350526,161.506965 364.75,162.068966 L376,162.068966 L374.125,165 L341,165 L336,162.068966 L348.5,162.068966 L344.75,157.965517 C341,157.965517 339.125,156.597701 339.125,153.862069 C339.125,151.126437 341.416667,149.954023 346,150.344828 L346,148 Z M343.5,155.62069 C344.190356,155.62069 344.75,155.095782 344.75,154.448276 C344.75,153.80077 344.190356,153.275862 343.5,153.275862 C342.809644,153.275862 342.25,153.80077 342.25,154.448276 C342.25,155.095782 342.809644,155.62069 343.5,155.62069 Z" id="Combined-Shape" fill="#E4D4FA" fill-rule="evenodd"></path>
                        <polygon id="Path-8" fill="#523579" fill-rule="evenodd" points="201 140 201 136.428571 212.8 132.857143 212.8 130 245.715789 130 245.715789 132.142857 260 136.428571 260 140"></polygon>
                        <rect id="Rectangle" fill="#E4D4FA" fill-rule="evenodd" x="241" y="138" width="48" height="25"></rect>
                        <rect id="Rectangle" fill="#E4D4FA" fill-rule="evenodd" x="411" y="145" width="65" height="17"></rect>
                        <rect id="Rectangle" fill="#957FC6" fill-rule="evenodd" x="400" y="130" width="82" height="17"></rect>
                        <rect id="Rectangle" fill="#523579" fill-rule="evenodd" x="411" y="122" width="75" height="10"></rect>
                        <polygon id="Path-14" fill-opacity="0.5" fill="url(#linearGradient-7)" fill-rule="evenodd" points="289 69.3776224 312.333216 10.5454545 325.150053 2 391 77.3859849 388.9056 72.6643357 306.417753 96"></polygon>
                        <polygon id="Path-12" fill="#BCBCBC" fill-rule="evenodd" points="289 71 294.225806 99 307 99 302.935484 71"></polygon>
                        <polygon id="Path-12" fill="#DCDCDC" fill-rule="evenodd" points="300 71 300 99 305 99 301.5 71"></polygon>
                        <path d="M380.186476,84.0408422 L363.519982,112.799966 L352.58594,131.667369 L310.265118,93.318737 L309.651773,87.7520001 L304.745011,85.2778948 L304.745011,87.1334738 L305.358356,88.3705264 L305.358356,90.2261054 L299.224904,89.6075791 C297.025791,87.8373816 295.594652,86.187978 294.931487,84.6593685 C294.268323,83.130759 294.268323,81.4813555 294.931487,79.7111579 L286.957999,76 C285.936259,77.1985496 285.73181,79.4664795 286.344654,82.8037895 C287.263919,87.8097547 288.214402,89.7868235 292.478106,93.318737 C295.320576,95.673346 299.000647,96.9103987 303.518321,97.029895 C324.950488,128.174476 341.919707,144.462335 354.425976,145.893474 C366.932245,147.324613 378.790253,134.335561 390,106.926316 L380.186476,84.0408422 Z" id="Path-10" fill="#FFEAEA" fill-rule="evenodd"></path>
                    </g>
                </g>
            </g>
        </g>
    </g>
</svg>
