<?xml version="1.0" encoding="UTF-8"?>
<svg width="734px" height="267px" viewBox="0 0 734 267" version="1.1" xmlns="http://www.w3.org/2000/svg" xmlns:xlink="http://www.w3.org/1999/xlink">
    <!-- Generator: Sketch 47.1 (45422) - http://www.bohemiancoding.com/sketch -->
    <title>Group</title>
    <desc>Created with Sketch.</desc>
    <defs>
        <rect id="path-1" x="650.112923" y="43.9576083" width="75.1981982" height="3"></rect>
        <rect id="path-2" x="647.112923" y="47.9576083" width="75.1981982" height="3"></rect>
        <linearGradient x1="38.1652687%" y1="37.9729196%" x2="7.94611045%" y2="67.6143346%" id="linearGradient-3">
            <stop stop-color="#EFF8F7" stop-opacity="0" offset="0%"></stop>
            <stop stop-color="#E8F7F5" stop-opacity="0.5" offset="100%"></stop>
        </linearGradient>
    </defs>
    <g id="Welcome" stroke="none" stroke-width="1" fill="none" fill-rule="evenodd">
        <g id="Desktop" transform="translate(-272.000000, -360.000000)">
            <g id="Group-7" transform="translate(28.000000, -73.000000)">
                <g id="Group-2" transform="translate(244.000000, 254.000000)">
                    <g id="Group">
                        <g transform="translate(0.000000, 179.000000)">
                            <g id="Group-3" transform="translate(0.000000, 36.500000)" fill="#FCF7B3">
                                <path d="M613.901893,0 C636.422423,5.9261156 649.436766,12.0678905 652.944923,18.4253247 C653.528648,19.4831434 663.495175,21.2521263 667.678141,29.4805195 C670.466785,34.9661149 690.407405,101.805942 727.5,230 L0.5,229 L613.901893,0 Z" id="Mask"></path>
                            </g>
                            <rect id="Rectangle" fill="#523579" x="266" y="208.5" width="98.7897898" height="38.2777778"></rect>
                            <rect id="Rectangle" fill="#523579" x="266" y="131.5" width="64.8768769" height="64.7777778"></rect>
                            <rect id="Rectangle" fill="#523579" x="291" y="84.5" width="98.7897898" height="113.361111"></rect>
                            <rect id="Rectangle" fill="#E4D4FA" transform="translate(400.795796, 141.180556) scale(-1, 1) translate(-400.795796, -141.180556) " x="389" y="84.5" width="23.5915916" height="113.361111"></rect>
                            <polygon id="Rectangle" fill="#E4D4FA" points="330.876877 130.645833 379.534535 94 379.534535 195.055556 330.876877 195.055556"></polygon>
                            <polygon id="Rectangle" fill="#957FC6" points="266 132.777778 331.142766 132.777778 379.534535 94.5 296.710161 94.5"></polygon>
                            <g id="Rectangle-2" transform="translate(687.712022, 45.457608) rotate(60.000000) translate(-687.712022, -45.457608) ">
                                <use fill="#523579" fill-rule="evenodd" xlink:href="#path-1"></use>
                                <rect stroke="#523579" stroke-width="1" x="650.612923" y="44.4576083" width="74.1981982" height="2"></rect>
                            </g>
                            <g id="Rectangle-2" transform="translate(684.712022, 49.457608) rotate(60.000000) translate(-684.712022, -49.457608) ">
                                <use fill="#523579" fill-rule="evenodd" xlink:href="#path-2"></use>
                                <rect stroke="#523579" stroke-width="1" x="647.612923" y="48.4576083" width="74.1981982" height="2"></rect>
                            </g>
                            <rect id="Rectangle-2" fill="#E4D4FA" transform="translate(685.437136, 114.155948) scale(-1, 1) rotate(60.000000) translate(-685.437136, -114.155948) " x="648.575274" y="112.69067" width="73.7237237" height="2.93055556"></rect>
                            <rect id="Rectangle-2" fill="#E4D4FA" transform="translate(690.437136, 114.155948) scale(-1, 1) rotate(60.000000) translate(-690.437136, -114.155948) " x="653.575274" y="112.69067" width="73.7237237" height="2.93055556"></rect>
                            <path d="M694.372161,91.7351785 C694.640295,91.7351785 711.408597,91.7685269 711.668028,91.7351785 C714.813614,91.3308302 711.668028,88.498333 711.668028,85.1265964 C711.668028,81.7838326 712.95373,78.9592672 709.84741,78.5180142 C709.562074,78.4774822 694.668232,78.5180142 694.372161,78.5180142 C690.852914,78.5180142 688,81.4767772 688,85.1265964 C688,88.7764155 690.852914,91.7351785 694.372161,91.7351785 Z" id="Oval-2" fill="#E4D4FA"></path>
                            <ellipse id="Oval-2" fill="#957FC6" cx="710.635135" cy="85.125" rx="6.63513514" ry="6.625"></ellipse>
                            <path d="M660.372161,155.735178 C660.640295,155.735178 677.408597,155.768527 677.668028,155.735178 C680.813614,155.33083 677.668028,152.498333 677.668028,149.126596 C677.668028,145.783833 678.95373,142.959267 675.84741,142.518014 C675.562074,142.477482 660.668232,142.518014 660.372161,142.518014 C656.852914,142.518014 654,145.476777 654,149.126596 C654,152.776415 656.852914,155.735178 660.372161,155.735178 Z" id="Oval-2" fill="#E4D4FA"></path>
                            <ellipse id="Oval-2" fill="#957FC6" cx="676.635135" cy="149.125" rx="6.63513514" ry="6.625"></ellipse>
                            <path d="M645,22.6865772 L655.067102,4.1369195 C658.945118,0.537072869 662.605882,-0.390410014 666.049394,1.35447085 C669.492907,3.09935171 671.323289,6.80928325 671.540541,12.4842655 L661.473439,32.8888889 L645,22.6865772 Z" id="Path-6" fill="#957FC6"></path>
                            <path d="M611,35.8012004 L667.917589,65.1388889 C675.382191,46.1916317 671.02784,32.4395903 654.854536,23.8827644 C638.681232,15.3259386 624.063053,19.2987506 611,35.8012004 Z" id="Path-5" fill="#E4D4FA"></path>
                            <path d="M467.123268,30.4047023 C466.196391,36.8123397 470.830778,45.0507308 469.9039,51.4583682 C468.977023,57.8660057 473.61141,69.7659039 488.441447,74.3427878 C503.271485,78.9196717 502.344608,87.1580627 500.490853,92.6503234 C498.637098,98.1425841 488.441447,107.296352 488.441447,112.788613 C488.441447,116.45012 489.986243,127.434641 493.075834,145.742177 L590.397956,166.795843 C620.59377,170.16175 635.073759,177.947216 633.837923,190.15224 C631.984168,208.459776 664.548143,174.118857 645.083719,154.895944 C625.619295,135.673032 619.131153,132.926902 608.008625,108.211729 C596.886097,83.4965556 597.812974,73.427411 578.34855,66.1043967 C558.884126,58.7813825 559.811003,59.6967593 548.688475,45.0507308 C537.565947,30.4047023 546.83472,20.3355577 529.224051,9.35103632 C511.613381,-1.63348504 495.856466,2.02802208 481.953306,10.2664131 C468.050146,18.5048041 468.050146,23.9970648 467.123268,30.4047023 Z" id="Path-11" fill="#3A3A3A"></path>
                            <path d="M639,165.75 L697.978979,165.75 C688.149149,156.916667 678.319319,152.5 668.489489,152.5 C658.65966,152.5 648.82983,156.916667 639,165.75 Z" id="Path-7" fill="#E4D4FA"></path>
                            <path d="M671.645164,165.75 L697.963964,165.75 C688.283486,156.916667 678.603008,152.5 668.92253,152.5 C662.177639,152.5 675.275344,153.383333 676.182888,159.125 C676.787918,162.952778 675.275344,165.161111 671.645164,165.75 Z" id="Path-7" fill="#957FC6"></path>
                            <path d="M481.063286,32.3583267 L484.776777,51.7047133 L484.776777,61.8385348 L489.418641,59.9960218 L494.060505,72.8936129 L505.200979,66.4448174 C509.754947,73.2939433 512.230607,78.8214824 512.627961,83.0274344 C513.025315,87.2333865 511.478027,91.5325835 507.986097,95.9250255 C497.515981,106.659604 491.636286,114.643827 490.347014,119.877695 C489.057741,125.111562 488.129368,144.765034 487.561895,178.838111 L473.636303,189.893189 L455.997219,143.830364 L443,127.247747 L443,141.987851 C448.386858,172.571916 454.885467,192.532474 462.495829,201.869523 C470.106191,211.206573 480.62775,212.12783 494.060505,204.633293 L507.057724,198.184497 L505.200979,199.105754 L510.771216,201.869523 L531.912593,200.168497 L579.470804,196.341984 L593.396396,167.783033 L570.187076,109.743873 L525.625181,83.0274344 C518.391609,61.4186914 511.583542,46.9856728 505.200979,39.7283788 C498.818416,32.4710847 490.772518,30.0144007 481.063286,32.3583267 Z" id="Path-9" fill="#F0D7D7"></path>
                            <rect id="Rectangle" fill="#957FC6" x="611" y="165.5" width="113.534535" height="26.5"></rect>
                            <path d="M497.5,107.5 C507.176164,114.853621 515.411621,118.284534 522.206371,117.792737 C527.722718,117.39347 538.191966,111.295891 553.614114,99.5 L571.307808,109.021835 L594.899399,167.617745 L579.442095,199.124599 C590.595269,207.582417 597.672805,213.743922 600.674703,217.609113 C609.756047,229.302093 609.705695,238.85601 608.059957,242.563207 C605.598206,248.108561 566.210181,248.108561 489.895882,242.563207 C488.665006,225.310994 496.050261,212.679909 512.051646,204.669953 C528.053031,196.659997 520.052339,180.94816 488.049568,157.534442 C487.812153,138.542976 488.427591,126.364829 489.895882,121 C491.331724,115.75373 493.86643,111.25373 497.5,107.5 Z" id="Path-13" fill="#616161"></path>
                            <rect id="Rectangle" fill="#523579" x="243" y="239.5" width="485.102102" height="26.5"></rect>
                            <path d="M522.744745,223.5 L543.018769,223.5 C544.045909,225.327586 544.967456,226.241379 545.783408,226.241379 C546.599361,226.241379 547.213725,225.327586 547.626502,223.5 L554.998874,223.5 C555.710761,230.468014 555.710761,235.646175 554.998874,239.034483 C554.286987,242.42279 552.751076,244.554974 550.391141,245.431034 L566.978979,245.431034 L564.214339,250 L515.372372,250 L508,245.431034 L526.430931,245.431034 L520.901652,239.034483 C515.372372,239.034483 512.607733,236.902299 512.607733,232.637931 C512.607733,228.373563 515.986737,226.545977 522.744745,227.155172 L522.744745,223.5 Z M519.058559,235.37931 C520.076471,235.37931 520.901652,234.561072 520.901652,233.551724 C520.901652,232.542376 520.076471,231.724138 519.058559,231.724138 C518.040646,231.724138 517.215465,232.542376 517.215465,233.551724 C517.215465,234.561072 518.040646,235.37931 519.058559,235.37931 Z" id="Combined-Shape" fill="#E4D4FA"></path>
                            <polygon id="Path-8" fill="#523579" points="303 208.75 303 204.017857 320.693694 199.285714 320.693694 195.5 370.049787 195.5 370.049787 198.339286 391.468468 204.017857 391.468468 208.75"></polygon>
                            <rect id="Rectangle" fill="#E4D4FA" x="365" y="208.5" width="73.7237237" height="38.2777778"></rect>
                            <rect id="Rectangle" fill="#E4D4FA" x="620" y="217.5" width="98.7897898" height="26.5"></rect>
                            <rect id="Rectangle" fill="#957FC6" x="605" y="196.5" width="122.381381" height="26.5"></rect>
                            <rect id="Rectangle" fill="#523579" x="620" y="184.5" width="113.534535" height="13.25"></rect>
                            <polygon id="Path-14" fill-opacity="0.5" fill="url(#linearGradient-3)" points="436 107 471.5 17.5 491 4.5 591.186496 119.182935 588 112 462.5 147.5"></polygon>
                            <polygon id="Path-12" fill="#BCBCBC" points="436 106.5 444.133391 147.722222 464.015015 147.722222 457.689044 106.5"></polygon>
                            <polygon id="Path-12" fill="#DCDCDC" points="454 106.5 454 147.722222 462.846847 147.722222 456.654054 106.5"></polygon>
                            <path d="M574.546239,126.50702 L549.499336,169.451695 L533.067332,197.62552 L469.466342,140.361273 L468.544588,132.048721 L461.170561,128.354253 L461.170561,131.125104 L462.092314,132.972338 L462.092314,135.743188 L452.874779,134.819571 C449.569887,132.176217 447.419129,129.713239 446.422505,127.430636 C445.425881,125.148034 445.425881,122.685056 446.422505,120.041701 L434.43971,114.5 C432.904208,116.289739 432.596957,119.676334 433.517956,124.659786 C434.899455,132.134963 436.327869,135.087229 442.735491,140.361273 C447.007239,143.877302 452.53776,145.724536 459.327054,145.902974 C491.535953,192.409743 517.037799,216.731654 535.832592,218.868708 C554.627386,221.005762 572.447953,201.609807 589.294294,160.680844 L574.546239,126.50702 Z" id="Path-10" fill="#FFEAEA"></path>
                        </g>
                    </g>
                </g>
            </g>
        </g>
    </g>
</svg>
