<?xml version="1.0" encoding="UTF-8"?>
<svg width="2524px" height="1209px" viewBox="0 0 2524 1209" version="1.1" xmlns="http://www.w3.org/2000/svg" xmlns:xlink="http://www.w3.org/1999/xlink">
    <!-- Generator: Sketch 47.1 (45422) - http://www.bohemiancoding.com/sketch -->
    <title>Group 9</title>
    <desc>Created with Sketch.</desc>
    <defs>
        <rect id="path-1" x="0" y="0" width="196" height="20" rx="2"></rect>
        <rect id="path-2" x="0" y="0" width="196" height="20" rx="2"></rect>
        <rect id="path-3" x="75" y="306" width="82" height="20" rx="2"></rect>
        <rect id="path-4" x="169" y="306" width="82" height="20" rx="2"></rect>
        <rect id="path-5" x="0" y="0" width="196" height="20" rx="2"></rect>
    </defs>
    <g id="Frames-2---Free-sample" stroke="none" stroke-width="1" fill="none" fill-rule="evenodd">
        <g id="Desktop-HD" transform="translate(-400.000000, -354.000000)">
            <g id="Group-9" transform="translate(400.000000, 354.000000)">
                <g id="Group-8">
                    <g id="Group" transform="translate(0.000000, 290.000000)">
                        <g id="search#3">
                            <g id="holder">
                                <rect id="bg" fill="#4D8FFF" x="0" y="0" width="420" height="384" rx="3"></rect>
                                <path d="M15,22 C12.2385763,22 10,19.7614237 10,17 C10,14.2385763 12.2385763,12 15,12 C17.7614237,12 20,14.2385763 20,17 C20,19.7614237 17.7614237,22 15,22 Z M35,22 C32.2385763,22 30,19.7614237 30,17 C30,14.2385763 32.2385763,12 35,12 C37.7614237,12 40,14.2385763 40,17 C40,19.7614237 37.7614237,22 35,22 Z M55,22 C52.2385763,22 50,19.7614237 50,17 C50,14.2385763 52.2385763,12 55,12 C57.7614237,12 60,14.2385763 60,17 C60,19.7614237 57.7614237,22 55,22 Z" id="dots" fill="#FFFFFF" opacity="0.4"></path>
                            </g>
                            <rect id="bg" fill="#FFFFFF" x="10" y="34" width="400" height="340"></rect>
                            <g id="pic" transform="translate(170.000000, 98.000000)" fill="#4D8FFF" opacity="0.8">
                                <path d="M55.7915532,16.8301245 C56.3648247,16.4294766 57.1336604,16.5704072 57.5160012,17.1643404 L79.8282133,42.9396196 C80.2059206,43.5248534 79.9349427,44 79.2682031,44 L0.793599258,44 C0.104650912,44 -0.193169059,43.5030258 0.131333281,42.8825197 L26.9635706,0.461925362 C27.2880729,-0.153993692 27.8436094,-0.149564895 28.1903205,0.448797143 L42.6620703,25.1945393 C42.8398995,25.4982282 43.2265542,25.5773138 43.5109531,25.3792834 L55.7915532,16.8301245 Z M69.1891892,12.8780488 C65.6068016,12.8780488 62.7027027,9.99519936 62.7027027,6.43902439 C62.7027027,2.88284942 65.6068016,0 69.1891892,0 C72.7715768,0 75.6756757,2.88284942 75.6756757,6.43902439 C75.6756757,9.99519936 72.7715768,12.8780488 69.1891892,12.8780488 Z"></path>
                            </g>
                            <g id="text" transform="translate(125.000000, 283.000000)" fill="#4D8FFF" opacity="0.5">
                                <rect id="Rectangle-473-Copy-9" x="0" y="0" width="170" height="8"></rect>
                                <rect id="Rectangle-473-Copy-11" x="10" y="20" width="100" height="8"></rect>
                                <rect id="Rectangle-473-Copy-25" x="120" y="20" width="40" height="8"></rect>
                            </g>
                            <g id="search" transform="translate(65.000000, 203.000000)">
                                <rect id="btn" fill="#4D8FFF" x="209" y="0" width="82" height="20" rx="10"></rect>
                                <g id="input">
                                    <use fill-opacity="0.2" fill="#4D8FFF" fill-rule="evenodd" xlink:href="#path-1"></use>
                                    <rect stroke-opacity="0.8" stroke="#4D8FFF" stroke-width="4" x="2" y="2" width="192" height="16" rx="2"></rect>
                                </g>
                            </g>
                        </g>
                        <g id="header#1" transform="translate(10.000000, 34.000000)">
                            <rect id="bg" fill="#FFFFFF" x="0" y="40" width="400" height="300"></rect>
                            <rect id="btn" fill="#4D8FFF" x="160" y="247" width="82" height="20" rx="10"></rect>
                            <g id="text" transform="translate(70.000000, 182.000000)" fill="#4D8FFF" opacity="0.5">
                                <rect id="Rectangle-473-Copy" x="0" y="0" width="200" height="8"></rect>
                                <rect id="Rectangle-473-Copy-10" x="210" y="0" width="50" height="8"></rect>
                                <rect id="Rectangle-473-Copy-9" x="35" y="20" width="200" height="8"></rect>
                            </g>
                            <g id="pic" transform="translate(160.000000, 111.000000)" fill="#4D8FFF" opacity="0.8">
                                <path d="M55.7915532,16.8301245 C56.3648247,16.4294766 57.1336604,16.5704072 57.5160012,17.1643404 L79.8282133,42.9396196 C80.2059206,43.5248534 79.9349427,44 79.2682031,44 L0.793599258,44 C0.104650912,44 -0.193169059,43.5030258 0.131333281,42.8825197 L26.9635706,0.461925362 C27.2880729,-0.153993692 27.8436094,-0.149564895 28.1903205,0.448797143 L42.6620703,25.1945393 C42.8398995,25.4982282 43.2265542,25.5773138 43.5109531,25.3792834 L55.7915532,16.8301245 Z M69.1891892,12.8780488 C65.6068016,12.8780488 62.7027027,9.99519936 62.7027027,6.43902439 C62.7027027,2.88284942 65.6068016,0 69.1891892,0 C72.7715768,0 75.6756757,2.88284942 75.6756757,6.43902439 C75.6756757,9.99519936 72.7715768,12.8780488 69.1891892,12.8780488 Z"></path>
                            </g>
                            <g id="nav-menu">
                                <g id="menu">
                                    <rect id="bg" fill="#FFFFFF" x="0" y="0" width="400" height="30"></rect>
                                    <rect id="link" fill="#4D8FFF" opacity="0.5" x="360" y="11" width="30" height="8"></rect>
                                    <rect id="link" fill="#4D8FFF" opacity="0.5" x="320" y="11" width="30" height="8"></rect>
                                    <rect id="link" fill="#4D8FFF" opacity="0.5" x="260" y="11" width="50" height="8"></rect>
                                    <rect id="logo" fill="#4D8FFF" opacity="0.8" x="10" y="11" width="50" height="8"></rect>
                                </g>
                            </g>
                        </g>
                    </g>
                    <text id="onboard" font-family="Avenir-Heavy, Avenir" font-size="62" font-weight="600" fill="#4D8FFF">
                        <tspan x="87" y="736">onboard</tspan>
                    </text>
                    <g id="Group-3" transform="translate(688.000000, 0.000000)">
                        <text id="about" font-family="Avenir-Heavy, Avenir" font-size="62" font-weight="600" fill="#4D8FFF">
                            <tspan x="125" y="440">about</tspan>
                        </text>
                        <g id="contacts#7">
                            <g id="holder">
                                <rect id="bg" fill="#4D8FFF" x="0" y="0" width="420" height="384" rx="3"></rect>
                                <path d="M15,22 C12.2385763,22 10,19.7614237 10,17 C10,14.2385763 12.2385763,12 15,12 C17.7614237,12 20,14.2385763 20,17 C20,19.7614237 17.7614237,22 15,22 Z M35,22 C32.2385763,22 30,19.7614237 30,17 C30,14.2385763 32.2385763,12 35,12 C37.7614237,12 40,14.2385763 40,17 C40,19.7614237 37.7614237,22 35,22 Z M55,22 C52.2385763,22 50,19.7614237 50,17 C50,14.2385763 52.2385763,12 55,12 C57.7614237,12 60,14.2385763 60,17 C60,19.7614237 57.7614237,22 55,22 Z" id="dots" fill="#FFFFFF" opacity="0.4"></path>
                            </g>
                            <rect id="bg" fill="#FFFFFF" x="10" y="34" width="400" height="340"></rect>
                        </g>
                        <g id="Group-2" transform="translate(90.000000, 144.000000)" fill="#4D8FFF">
                            <g id="text">
                                <rect id="Rectangle-473" x="0" y="0" width="90" height="8"></rect>
                                <rect id="Rectangle-473-Copy-15" x="100" y="0" width="30" height="8"></rect>
                                <rect id="Rectangle-473-Copy" opacity="0.5" x="0" y="20" width="240" height="8"></rect>
                                <rect id="Rectangle-473-Copy-12" opacity="0.5" x="0" y="40" width="220" height="8"></rect>
                                <rect id="Rectangle-473-Copy" opacity="0.5" x="0" y="61" width="240" height="8"></rect>
                                <rect id="Rectangle-473-Copy-12" opacity="0.5" x="0" y="81" width="220" height="8"></rect>
                                <rect id="Rectangle-473-Copy" opacity="0.5" x="0" y="103" width="240" height="8"></rect>
                                <rect id="Rectangle-473-Copy-12" opacity="0.5" x="0" y="123" width="240" height="8"></rect>
                                <rect id="Rectangle-473-Copy" opacity="0.5" x="0" y="144" width="230" height="8"></rect>
                                <rect id="Rectangle-473-Copy-12" opacity="0.5" x="0" y="164" width="240" height="8"></rect>
                                <rect id="Rectangle-473-Copy" opacity="0.5" x="0" y="185" width="210" height="8"></rect>
                                <rect id="Rectangle-473-Copy-12" opacity="0.5" x="0" y="205" width="240" height="8"></rect>
                                <rect id="Rectangle-473-Copy" opacity="0.5" x="0" y="226" width="240" height="8"></rect>
                            </g>
                        </g>
                        <g id="pic" transform="translate(170.000000, 59.000000)" fill="#4D8FFF" opacity="0.8">
                            <path d="M55.7915532,16.8301245 C56.3648247,16.4294766 57.1336604,16.5704072 57.5160012,17.1643404 L79.8282133,42.9396196 C80.2059206,43.5248534 79.9349427,44 79.2682031,44 L0.793599258,44 C0.104650912,44 -0.193169059,43.5030258 0.131333281,42.8825197 L26.9635706,0.461925362 C27.2880729,-0.153993692 27.8436094,-0.149564895 28.1903205,0.448797143 L42.6620703,25.1945393 C42.8398995,25.4982282 43.2265542,25.5773138 43.5109531,25.3792834 L55.7915532,16.8301245 Z M69.1891892,12.8780488 C65.6068016,12.8780488 62.7027027,9.99519936 62.7027027,6.43902439 C62.7027027,2.88284942 65.6068016,0 69.1891892,0 C72.7715768,0 75.6756757,2.88284942 75.6756757,6.43902439 C75.6756757,9.99519936 72.7715768,12.8780488 69.1891892,12.8780488 Z"></path>
                        </g>
                    </g>
                    <g id="Group-4" transform="translate(688.000000, 587.000000)">
                        <text id="schedule" font-family="Avenir-Heavy, Avenir" font-size="62" font-weight="600" fill="#4D8FFF">
                            <tspan x="83" y="446">schedule</tspan>
                        </text>
                        <text id="schedule" font-family="Avenir-Heavy, Avenir" font-size="62" font-weight="600" fill="#4D8FFF">
                            <tspan x="83" y="446">schedule</tspan>
                        </text>
                        <g id="search#3">
                            <g id="holder">
                                <rect id="bg" fill="#4D8FFF" x="0" y="0" width="420" height="384" rx="3"></rect>
                                <path d="M15,22 C12.2385763,22 10,19.7614237 10,17 C10,14.2385763 12.2385763,12 15,12 C17.7614237,12 20,14.2385763 20,17 C20,19.7614237 17.7614237,22 15,22 Z M35,22 C32.2385763,22 30,19.7614237 30,17 C30,14.2385763 32.2385763,12 35,12 C37.7614237,12 40,14.2385763 40,17 C40,19.7614237 37.7614237,22 35,22 Z M55,22 C52.2385763,22 50,19.7614237 50,17 C50,14.2385763 52.2385763,12 55,12 C57.7614237,12 60,14.2385763 60,17 C60,19.7614237 57.7614237,22 55,22 Z" id="dots" fill="#FFFFFF" opacity="0.4"></path>
                            </g>
                            <rect id="bg" fill="#FFFFFF" x="10" y="34" width="400" height="340"></rect>
                            <g id="pic" transform="translate(170.000000, 98.000000)" fill="#4D8FFF" opacity="0.8">
                                <path d="M55.7915532,16.8301245 C56.3648247,16.4294766 57.1336604,16.5704072 57.5160012,17.1643404 L79.8282133,42.9396196 C80.2059206,43.5248534 79.9349427,44 79.2682031,44 L0.793599258,44 C0.104650912,44 -0.193169059,43.5030258 0.131333281,42.8825197 L26.9635706,0.461925362 C27.2880729,-0.153993692 27.8436094,-0.149564895 28.1903205,0.448797143 L42.6620703,25.1945393 C42.8398995,25.4982282 43.2265542,25.5773138 43.5109531,25.3792834 L55.7915532,16.8301245 Z M69.1891892,12.8780488 C65.6068016,12.8780488 62.7027027,9.99519936 62.7027027,6.43902439 C62.7027027,2.88284942 65.6068016,0 69.1891892,0 C72.7715768,0 75.6756757,2.88284942 75.6756757,6.43902439 C75.6756757,9.99519936 72.7715768,12.8780488 69.1891892,12.8780488 Z"></path>
                            </g>
                            <g id="text" transform="translate(125.000000, 283.000000)" fill="#4D8FFF" opacity="0.5">
                                <rect id="Rectangle-473-Copy-9" x="0" y="0" width="170" height="8"></rect>
                                <rect id="Rectangle-473-Copy-11" x="10" y="20" width="100" height="8"></rect>
                                <rect id="Rectangle-473-Copy-25" x="120" y="20" width="40" height="8"></rect>
                            </g>
                            <g id="search" transform="translate(65.000000, 203.000000)">
                                <rect id="btn" fill="#4D8FFF" x="209" y="0" width="82" height="20" rx="10"></rect>
                                <g id="input">
                                    <use fill-opacity="0.2" fill="#4D8FFF" fill-rule="evenodd" xlink:href="#path-2"></use>
                                    <rect stroke-opacity="0.8" stroke="#4D8FFF" stroke-width="4" x="2" y="2" width="192" height="16" rx="2"></rect>
                                </g>
                            </g>
                        </g>
                    </g>
                    <g id="Group-5" transform="translate(1376.000000, 587.000000)">
                        <g id="contacts#7">
                            <g id="holder">
                                <rect id="bg" fill="#4D8FFF" x="0" y="0" width="420" height="384" rx="3"></rect>
                                <path d="M15,22 C12.2385763,22 10,19.7614237 10,17 C10,14.2385763 12.2385763,12 15,12 C17.7614237,12 20,14.2385763 20,17 C20,19.7614237 17.7614237,22 15,22 Z M35,22 C32.2385763,22 30,19.7614237 30,17 C30,14.2385763 32.2385763,12 35,12 C37.7614237,12 40,14.2385763 40,17 C40,19.7614237 37.7614237,22 35,22 Z M55,22 C52.2385763,22 50,19.7614237 50,17 C50,14.2385763 52.2385763,12 55,12 C57.7614237,12 60,14.2385763 60,17 C60,19.7614237 57.7614237,22 55,22 Z" id="dots" fill="#FFFFFF" opacity="0.4"></path>
                            </g>
                            <rect id="bg" fill="#FFFFFF" x="10" y="34" width="400" height="340"></rect>
                            <g id="text" transform="translate(80.000000, 244.000000)" fill="#4D8FFF" opacity="0.5">
                                <rect id="Rectangle-473-Copy" x="0" y="20" width="260" height="8"></rect>
                                <rect id="Rectangle-473-Copy-9" x="30" y="0" width="200" height="8"></rect>
                            </g>
                            <g id="loc" transform="translate(20.000000, 44.000000)" fill="#4D8FFF">
                                <rect id="Rectangle-507" opacity="0.2" x="0" y="0" width="380" height="155" rx="3"></rect>
                                <path d="M190,110 C190,110 167,85.7025492 167,73 C167,60.2974508 177.297451,50 190,50 C202.702549,50 213,60.2974508 213,73 C213,85.7025492 190,110 190,110 Z M190,79 C194.418278,79 198,75.418278 198,71 C198,66.581722 194.418278,63 190,63 C185.581722,63 182,66.581722 182,71 C182,75.418278 185.581722,79 190,79 Z" id="Combined-Shape" opacity="0.8"></path>
                            </g>
                        </g>
                        <g id="tupni">
                            <use fill-opacity="0.2" fill="#4D8FFF" fill-rule="evenodd" xlink:href="#path-3"></use>
                            <rect stroke-opacity="0.8" stroke="#4D8FFF" stroke-width="4" x="77" y="308" width="78" height="16" rx="2"></rect>
                        </g>
                        <g id="input">
                            <use fill-opacity="0.2" fill="#4D8FFF" fill-rule="evenodd" xlink:href="#path-4"></use>
                            <rect stroke-opacity="0.8" stroke="#4D8FFF" stroke-width="4" x="171" y="308" width="78" height="16" rx="2"></rect>
                        </g>
                        <rect id="btn" fill="#4D8FFF" x="263" y="306" width="82" height="20" rx="2"></rect>
                    </g>
                    <text id="address" font-family="Avenir-Heavy, Avenir" font-size="62" font-weight="600" fill="#4D8FFF">
                        <tspan x="1473" y="1033">address</tspan>
                    </text>
                    <text id="results" font-family="Avenir-Heavy, Avenir" font-size="62" font-weight="600" fill="#4D8FFF">
                        <tspan x="2219" y="841">results</tspan>
                    </text>
                    <g id="Group-7" transform="translate(1376.000000, 0.000000)">
                        <g id="Group">
                            <g id="search#3">
                                <g id="holder">
                                    <rect id="bg" fill="#4D8FFF" x="0" y="0" width="420" height="384" rx="3"></rect>
                                    <path d="M15,22 C12.2385763,22 10,19.7614237 10,17 C10,14.2385763 12.2385763,12 15,12 C17.7614237,12 20,14.2385763 20,17 C20,19.7614237 17.7614237,22 15,22 Z M35,22 C32.2385763,22 30,19.7614237 30,17 C30,14.2385763 32.2385763,12 35,12 C37.7614237,12 40,14.2385763 40,17 C40,19.7614237 37.7614237,22 35,22 Z M55,22 C52.2385763,22 50,19.7614237 50,17 C50,14.2385763 52.2385763,12 55,12 C57.7614237,12 60,14.2385763 60,17 C60,19.7614237 57.7614237,22 55,22 Z" id="dots" fill="#FFFFFF" opacity="0.4"></path>
                                </g>
                                <rect id="bg" fill="#FFFFFF" x="10" y="34" width="400" height="340"></rect>
                                <g id="pic" transform="translate(170.000000, 98.000000)" fill="#4D8FFF" opacity="0.8">
                                    <path d="M55.7915532,16.8301245 C56.3648247,16.4294766 57.1336604,16.5704072 57.5160012,17.1643404 L79.8282133,42.9396196 C80.2059206,43.5248534 79.9349427,44 79.2682031,44 L0.793599258,44 C0.104650912,44 -0.193169059,43.5030258 0.131333281,42.8825197 L26.9635706,0.461925362 C27.2880729,-0.153993692 27.8436094,-0.149564895 28.1903205,0.448797143 L42.6620703,25.1945393 C42.8398995,25.4982282 43.2265542,25.5773138 43.5109531,25.3792834 L55.7915532,16.8301245 Z M69.1891892,12.8780488 C65.6068016,12.8780488 62.7027027,9.99519936 62.7027027,6.43902439 C62.7027027,2.88284942 65.6068016,0 69.1891892,0 C72.7715768,0 75.6756757,2.88284942 75.6756757,6.43902439 C75.6756757,9.99519936 72.7715768,12.8780488 69.1891892,12.8780488 Z"></path>
                                </g>
                                <g id="text" transform="translate(125.000000, 283.000000)" fill="#4D8FFF" opacity="0.5">
                                    <rect id="Rectangle-473-Copy-9" x="0" y="0" width="170" height="8"></rect>
                                    <rect id="Rectangle-473-Copy-11" x="10" y="20" width="100" height="8"></rect>
                                    <rect id="Rectangle-473-Copy-25" x="120" y="20" width="40" height="8"></rect>
                                </g>
                                <g id="search" transform="translate(65.000000, 203.000000)">
                                    <rect id="btn" fill="#4D8FFF" x="209" y="0" width="82" height="20" rx="10"></rect>
                                    <g id="input">
                                        <use fill-opacity="0.2" fill="#4D8FFF" fill-rule="evenodd" xlink:href="#path-5"></use>
                                        <rect stroke-opacity="0.8" stroke="#4D8FFF" stroke-width="4" x="2" y="2" width="192" height="16" rx="2"></rect>
                                    </g>
                                </g>
                            </g>
                            <g id="header#1" transform="translate(10.000000, 34.000000)">
                                <rect id="bg" fill="#FFFFFF" x="0" y="40" width="400" height="300"></rect>
                                <rect id="btn" fill="#4D8FFF" x="160" y="247" width="82" height="20" rx="10"></rect>
                                <g id="text" transform="translate(70.000000, 182.000000)" fill="#4D8FFF" opacity="0.5">
                                    <rect id="Rectangle-473-Copy" x="0" y="0" width="200" height="8"></rect>
                                    <rect id="Rectangle-473-Copy-10" x="210" y="0" width="50" height="8"></rect>
                                    <rect id="Rectangle-473-Copy-9" x="35" y="20" width="200" height="8"></rect>
                                </g>
                                <g id="pic" transform="translate(160.000000, 111.000000)" fill="#4D8FFF" opacity="0.8">
                                    <path d="M55.7915532,16.8301245 C56.3648247,16.4294766 57.1336604,16.5704072 57.5160012,17.1643404 L79.8282133,42.9396196 C80.2059206,43.5248534 79.9349427,44 79.2682031,44 L0.793599258,44 C0.104650912,44 -0.193169059,43.5030258 0.131333281,42.8825197 L26.9635706,0.461925362 C27.2880729,-0.153993692 27.8436094,-0.149564895 28.1903205,0.448797143 L42.6620703,25.1945393 C42.8398995,25.4982282 43.2265542,25.5773138 43.5109531,25.3792834 L55.7915532,16.8301245 Z M69.1891892,12.8780488 C65.6068016,12.8780488 62.7027027,9.99519936 62.7027027,6.43902439 C62.7027027,2.88284942 65.6068016,0 69.1891892,0 C72.7715768,0 75.6756757,2.88284942 75.6756757,6.43902439 C75.6756757,9.99519936 72.7715768,12.8780488 69.1891892,12.8780488 Z"></path>
                                </g>
                                <g id="nav-menu">
                                    <g id="menu">
                                        <rect id="bg" fill="#FFFFFF" x="0" y="0" width="400" height="30"></rect>
                                        <rect id="link" fill="#4D8FFF" opacity="0.5" x="360" y="11" width="30" height="8"></rect>
                                        <rect id="link" fill="#4D8FFF" opacity="0.5" x="320" y="11" width="30" height="8"></rect>
                                        <rect id="link" fill="#4D8FFF" opacity="0.5" x="260" y="11" width="50" height="8"></rect>
                                        <rect id="logo" fill="#4D8FFF" opacity="0.8" x="10" y="11" width="50" height="8"></rect>
                                    </g>
                                </g>
                            </g>
                        </g>
                        <text id="no-route-error-page" font-family="Avenir-Heavy, Avenir" font-size="62" font-weight="600" line-spacing="65" fill="#4D8FFF">
                            <tspan x="85.473" y="456">no-route </tspan>
                            <tspan x="55" y="521">error page</tspan>
                        </text>
                    </g>
                    <g id="Group-6" transform="translate(2104.000000, 178.000000)">
                        <g id="holder">
                            <rect id="bg" fill="#4D8FFF" x="0" y="0" width="420" height="384" rx="3"></rect>
                            <path d="M15,22 C12.2385763,22 10,19.7614237 10,17 C10,14.2385763 12.2385763,12 15,12 C17.7614237,12 20,14.2385763 20,17 C20,19.7614237 17.7614237,22 15,22 Z M35,22 C32.2385763,22 30,19.7614237 30,17 C30,14.2385763 32.2385763,12 35,12 C37.7614237,12 40,14.2385763 40,17 C40,19.7614237 37.7614237,22 35,22 Z M55,22 C52.2385763,22 50,19.7614237 50,17 C50,14.2385763 52.2385763,12 55,12 C57.7614237,12 60,14.2385763 60,17 C60,19.7614237 57.7614237,22 55,22 Z" id="dots" fill="#FFFFFF" opacity="0.4"></path>
                        </g>
                        <g id="holder" transform="translate(0.000000, 211.000000)">
                            <rect id="bg" fill="#4D8FFF" x="0" y="0" width="420" height="384" rx="3"></rect>
                            <path d="M15,22 C12.2385763,22 10,19.7614237 10,17 C10,14.2385763 12.2385763,12 15,12 C17.7614237,12 20,14.2385763 20,17 C20,19.7614237 17.7614237,22 15,22 Z M35,22 C32.2385763,22 30,19.7614237 30,17 C30,14.2385763 32.2385763,12 35,12 C37.7614237,12 40,14.2385763 40,17 C40,19.7614237 37.7614237,22 35,22 Z M55,22 C52.2385763,22 50,19.7614237 50,17 C50,14.2385763 52.2385763,12 55,12 C57.7614237,12 60,14.2385763 60,17 C60,19.7614237 57.7614237,22 55,22 Z" id="dots" fill="#FFFFFF" opacity="0.4"></path>
                        </g>
                        <rect id="bg" fill="#FFFFFF" x="10" y="34" width="400" height="548"></rect>
                        <g id="text" transform="translate(80.000000, 176.000000)" fill="#4D8FFF" opacity="0.5">
                            <rect id="Rectangle-473-Copy" x="0" y="0" width="200" height="8"></rect>
                            <rect id="Rectangle-473-Copy-10" x="210" y="0" width="50" height="8"></rect>
                            <rect id="Rectangle-473-Copy-9" x="35" y="20" width="200" height="8"></rect>
                        </g>
                        <g id="pic" transform="translate(170.000000, 105.000000)" fill="#4D8FFF" opacity="0.8">
                            <path d="M55.7915532,16.8301245 C56.3648247,16.4294766 57.1336604,16.5704072 57.5160012,17.1643404 L79.8282133,42.9396196 C80.2059206,43.5248534 79.9349427,44 79.2682031,44 L0.793599258,44 C0.104650912,44 -0.193169059,43.5030258 0.131333281,42.8825197 L26.9635706,0.461925362 C27.2880729,-0.153993692 27.8436094,-0.149564895 28.1903205,0.448797143 L42.6620703,25.1945393 C42.8398995,25.4982282 43.2265542,25.5773138 43.5109531,25.3792834 L55.7915532,16.8301245 Z M69.1891892,12.8780488 C65.6068016,12.8780488 62.7027027,9.99519936 62.7027027,6.43902439 C62.7027027,2.88284942 65.6068016,0 69.1891892,0 C72.7715768,0 75.6756757,2.88284942 75.6756757,6.43902439 C75.6756757,9.99519936 72.7715768,12.8780488 69.1891892,12.8780488 Z"></path>
                        </g>
                        <rect id="btn" fill="#4D8FFF" x="169" y="530" width="82" height="20" rx="10"></rect>
                        <g id="feature_2" transform="translate(229.000000, 272.000000)" fill="#4D8FFF">
                            <rect id="Rectangle-471-Copy" opacity="0.2" x="0" y="0" width="88" height="88" rx="2"></rect>
                            <polygon id="Shape-Copy" opacity="0.8" points="44 56.7614118 57.596 65 53.9989569 49.4622539 66 39.0130526 50.1798431 37.6491146 44 23 37.8202431 37.6491146 22 39.0130526 34.0010431 49.4622539 30.404 65"></polygon>
                        </g>
                        <g id="feature_1" transform="translate(103.000000, 272.000000)" fill="#4D8FFF">
                            <rect id="Rectangle-471" opacity="0.2" x="0" y="0" width="88" height="88" rx="2"></rect>
                            <g id="star" transform="translate(22.000000, 23.000000)" opacity="0.8">
                                <polygon points="22 33.7614118 35.596 42 31.9989569 26.4622539 44 16.0130526 28.1798431 14.6491146 22 0 15.8202431 14.6491146 0 16.0130526 12.0010431 26.4622539 8.404 42"></polygon>
                            </g>
                        </g>
                        <g id="text_2" transform="translate(223.000000, 390.000000)" fill="#4D8FFF">
                            <rect id="Rectangle-474" x="0" y="0" width="100" height="8"></rect>
                            <rect id="Rectangle-474-Copy-2" opacity="0.5" x="0" y="48" width="100" height="8"></rect>
                            <rect id="Rectangle-474-Copy-4" opacity="0.5" x="10" y="94" width="80" height="8"></rect>
                            <rect id="Rectangle-474-Copy" opacity="0.5" x="10" y="25" width="80" height="8"></rect>
                            <rect id="Rectangle-474-Copy-3" opacity="0.5" x="10" y="71" width="80" height="8"></rect>
                        </g>
                        <g id="text_1" transform="translate(97.000000, 390.000000)" fill="#4D8FFF">
                            <rect id="Rectangle-474" x="0" y="0" width="100" height="8"></rect>
                            <rect id="Rectangle-474-Copy-2" opacity="0.5" x="10" y="48" width="80" height="8"></rect>
                            <rect id="Rectangle-474-Copy-4" opacity="0.5" x="20" y="94" width="60" height="8"></rect>
                            <rect id="Rectangle-474-Copy" opacity="0.5" x="10" y="25" width="80" height="8"></rect>
                            <rect id="Rectangle-474-Copy-3" opacity="0.5" x="10" y="71" width="80" height="8"></rect>
                        </g>
                    </g>
                    <g id="Path-2" transform="translate(553.000000, 651.000000) scale(1, -1) translate(-553.000000, -651.000000) translate(440.000000, 506.000000)">
                        <path d="M0.837037037,290 L93.8301039,290 C104.879628,290 113.837037,281.04291 113.837037,270.009951 L113.837037,19.9900486 C113.837037,8.94984959 122.790446,2.26878588e-15 133.83405,5.06722531e-15 L222.260144,2.74743191e-14" stroke="#5199E4" stroke-width="6"></path>
                        <polygon id="Triangle" fill="#5199E4" fill-rule="evenodd" points="216 8 216 -8 228 1.77635684e-15"></polygon>
                    </g>
                    <g id="Path-2" transform="translate(440.000000, 186.000000)">
                        <path d="M0.837037037,290 L93.8301039,290 C104.879628,290 113.837037,281.04291 113.837037,270.009951 L113.837037,19.9900486 C113.837037,8.94984959 122.790446,2.26878588e-15 133.83405,5.06722531e-15 L222.260144,2.74743191e-14" stroke="#5199E4" stroke-width="6"></path>
                        <polygon id="Triangle" fill="#5199E4" fill-rule="evenodd" points="216 8 216 -8 228 1.77635684e-15"></polygon>
                    </g>
                    <polygon id="Triangle" fill="#5199E4" transform="translate(439.000000, 476.000000) scale(-1, 1) translate(-439.000000, -476.000000) " points="433 484 433 468 445 476"></polygon>
                    <g id="Path-2" transform="translate(1224.000000, 798.000000) rotate(-360.000000) translate(-1224.000000, -798.000000) translate(1124.000000, 790.000000)">
                        <path d="M0,8 L192,8" stroke="#5199E4" stroke-width="6"></path>
                        <polygon id="Triangle" fill="#5199E4" fill-rule="evenodd" points="190 16 190 0 200 8"></polygon>
                    </g>
                    <g id="Path-2-Copy-5" transform="translate(1809.000000, 181.000000)">
                        <path d="M6,503 L83.004462,503 C94.0476927,503 103,494.039135 103,483.001625 L103,27.998375 C103,16.9535775 94.0396372,8 83.0072369,8 L10.8611275,8" id="Path-2" stroke="#5199E4" stroke-width="6"></path>
                        <polygon id="Triangle" fill="#5199E4" transform="translate(12.000000, 8.000000) scale(-1, 1) translate(-12.000000, -8.000000) " points="6 16 6 0 18 8"></polygon>
                        <polygon id="Triangle" fill="#5199E4" transform="translate(6.000000, 503.000000) scale(-1, 1) translate(-6.000000, -503.000000) " points="0 511 0 495 12 503"></polygon>
                    </g>
                    <g id="Path-2" transform="translate(1807.000000, 461.000000)">
                        <path d="M1.04444444,345 L122.048368,345 C133.091896,345 142.044444,336.037492 142.044444,324.991708 L142.044444,20.0082917 C142.044444,8.95801731 150.999664,2.1635243e-15 162.043188,4.83156953e-15 L277.333455,3.26849658e-14" stroke="#5199E4" stroke-width="6"></path>
                        <polygon id="Triangle" fill="#5199E4" fill-rule="evenodd" points="272 8 272 -8 284 1.77635684e-15"></polygon>
                    </g>
                    <g id="Path-2-Copy-5" transform="translate(1245.000000, 925.500000) rotate(90.000000) translate(-1245.000000, -925.500000) translate(1080.000000, -147.000000)">
                        <path d="M6,2137 L310.007332,2137 C321.048977,2137 330,2128.05104 330,2116.99951 L330,20.000487 C330,8.95452302 321.049034,6.26134136e-14 309.99676,5.92495688e-14 L115.325926,0" id="Path-2" stroke="#5199E4" stroke-width="6"></path>
                        <polygon id="Triangle" fill="#5199E4" transform="translate(6.000000, 2137.000000) scale(-1, 1) translate(-6.000000, -2137.000000) " points="0 2145 0 2129 12 2137"></polygon>
                    </g>
                    <text id="New-Calculation" opacity="0.5" font-family="Avenir-BlackOblique, Avenir" font-size="30" font-style="italic" font-weight="700" fill="#343536">
                        <tspan x="1117" y="1208">New Calculation</tspan>
                    </text>
                    <text id="Cost-Estimate" opacity="0.5" font-family="Avenir-BlackOblique, Avenir" font-size="30" font-style="italic" font-weight="700" fill="#343536">
                        <tspan x="2208" y="134">Cost Estimate</tspan>
                    </text>
                    <text id="Landing-Page" opacity="0.5" font-family="Avenir-BlackOblique, Avenir" font-size="30" font-style="italic" font-weight="700" fill="#343536">
                        <tspan x="109" y="244">Landing Page</tspan>
                    </text>
                    <text id="About-Team" opacity="0.5" font-family="Avenir-BlackOblique, Avenir" font-size="30" font-style="italic" font-weight="700" fill="#343536">
                        <tspan x="488" y="139">About Team</tspan>
                    </text>
                    <text id="User-Input" opacity="0.5" font-family="Avenir-BlackOblique, Avenir" font-size="30" font-style="italic" font-weight="700" fill="#343536">
                        <tspan x="505" y="872">User Input</tspan>
                    </text>
                    <text id="cont." opacity="0.5" font-family="Avenir-BlackOblique, Avenir" font-size="30" font-style="italic" font-weight="700" fill="#343536">
                        <tspan x="1197" y="876">cont.</tspan>
                    </text>
                    <text id="cont." opacity="0.5" font-family="Avenir-BlackOblique, Avenir" font-size="30" font-style="italic" font-weight="700" fill="#343536">
                        <tspan x="1824" y="872">cont.</tspan>
                    </text>
                    <text id="error-page" opacity="0.5" font-family="Avenir-BlackOblique, Avenir" font-size="30" font-style="italic" font-weight="700" fill="#343536">
                        <tspan x="1828" y="139">error page</tspan>
                    </text>
                </g>
            </g>
        </g>
    </g>
</svg>
