<svg xmlns="http://www.w3.org/2000/svg" xmlns:xlink="http://www.w3.org/1999/xlink" viewBox="-380 10187 1920 1066">
  <defs>
    <style>
      .cls-1 {
        fill: none;
        stroke: #95989a;
      }

      .cls-2 {
        clip-path: url(#clip-path);
      }

      .cls-3 {
        fill: #d9a9ea;
      }

      .cls-10, .cls-11, .cls-12, .cls-13, .cls-14, .cls-15, .cls-16, .cls-17, .cls-18, .cls-3, .cls-4, .cls-5, .cls-6, .cls-7, .cls-8, .cls-9 {
        opacity: 0.5;
      }

      .cls-4 {
        fill: #606060;
      }

      .cls-5 {
        fill: #73d5e3;
      }

      .cls-6 {
        fill: #f39;
      }

      .cls-7 {
        fill: #cfa9ea;
      }

      .cls-8 {
        fill: #3144b1;
      }

      .cls-9 {
        fill: #67d0de;
      }

      .cls-10 {
        fill: #4992e8;
      }

      .cls-11 {
        fill: #ffc72f;
      }

      .cls-12 {
        fill: #ea9e66;
      }

      .cls-13 {
        fill: #841d80;
      }

      .cls-14 {
        fill: #de6c75;
      }

      .cls-15 {
        fill: #a9eae3;
      }

      .cls-16 {
        fill: #16809a;
      }

      .cls-17 {
        fill: #67dea7;
      }

      .cls-18 {
        fill: #78b55d;
      }
    </style>
    <clipPath id="clip-path">
      <rect id="Rectangle_177" data-name="Rectangle 177" class="cls-1" width="1920" height="1066" transform="translate(0 8893)"/>
    </clipPath>
  </defs>
  <g id="Mask_Group_18" data-name="Mask Group 18" class="cls-2" transform="translate(-380 1294)">
    <g id="Group_589" data-name="Group 589" transform="translate(807.979 -355.637)">
      <circle id="Ellipse_8" data-name="Ellipse 8" class="cls-3" cx="137.255" cy="137.255" r="137.255" transform="translate(608.866 9843)"/>
      <circle id="Ellipse_9" data-name="Ellipse 9" class="cls-4" cx="137.255" cy="137.255" r="137.255" transform="translate(415 9988.011)"/>
      <circle id="Ellipse_10" data-name="Ellipse 10" class="cls-5" cx="137.255" cy="137.255" r="137.255" transform="translate(794.977 9988.011)"/>
      <circle id="Ellipse_11" data-name="Ellipse 11" class="cls-6" cx="137.255" cy="137.255" r="137.255" transform="translate(608.866 10133.021)"/>
    </g>
    <circle id="Ellipse_12" data-name="Ellipse 12" class="cls-7" cx="118.033" cy="118.033" r="118.033" transform="translate(1602.692 9214.868)"/>
    <circle id="Ellipse_13" data-name="Ellipse 13" class="cls-8" cx="118.033" cy="118.033" r="118.033" transform="translate(1439.918 9332.901)"/>
    <circle id="Ellipse_14" data-name="Ellipse 14" class="cls-9" cx="118.033" cy="118.033" r="118.033" transform="translate(1747.955 9350.901)"/>
    <circle id="Ellipse_15" data-name="Ellipse 15" class="cls-10" cx="118.033" cy="118.033" r="118.033" transform="translate(1602.692 9450.934)"/>
    <circle id="Ellipse_27" data-name="Ellipse 27" class="cls-11" cx="120.703" cy="120.703" r="120.703" transform="translate(1308.703 9038.633)"/>
    <circle id="Ellipse_28" data-name="Ellipse 28" class="cls-12" cx="102.203" cy="102.203" r="102.203" transform="translate(166 9191.336)"/>
    <circle id="Ellipse_29" data-name="Ellipse 29" class="cls-13" cx="89.203" cy="89.203" r="89.203" transform="translate(1045.578 9425.336)"/>
    <circle id="Ellipse_30" data-name="Ellipse 30" class="cls-14" cx="120.703" cy="120.703" r="120.703" transform="translate(87.703 9272.039)"/>
    <g id="Group_588" data-name="Group 588" transform="translate(750.944 8343.146)">
      <circle id="Ellipse_35" data-name="Ellipse 35" class="cls-15" cx="119.964" cy="119.964" r="119.964" transform="translate(1008.964 591)"/>
      <circle id="Ellipse_36" data-name="Ellipse 36" class="cls-16" cx="119.964" cy="119.964" r="119.964" transform="translate(889 710.964)"/>
      <circle id="Ellipse_37" data-name="Ellipse 37" class="cls-17" cx="119.964" cy="119.964" r="119.964" transform="translate(1124.129 710.964)"/>
      <circle id="Ellipse_38" data-name="Ellipse 38" class="cls-18" cx="119.964" cy="119.964" r="119.964" transform="translate(1008.964 830.927)"/>
    </g>
    <circle id="Ellipse_8-2" data-name="Ellipse 8" class="cls-3" cx="137.255" cy="137.255" r="137.255" transform="matrix(0.391, 0.921, -0.921, 0.391, 401.65, 9514.127)"/>
    <circle id="Ellipse_9-2" data-name="Ellipse 9" class="cls-4" cx="137.255" cy="137.255" r="137.255" transform="matrix(0.391, 0.921, -0.921, 0.391, 57.417, 9351.332)"/>
    <circle id="Ellipse_10-2" data-name="Ellipse 10" class="cls-5" cx="137.255" cy="137.255" r="137.255" transform="matrix(0.391, 0.921, -0.921, 0.391, 340.886, 9742.103)"/>
    <circle id="Ellipse_11-2" data-name="Ellipse 11" class="cls-6" cx="137.255" cy="137.255" r="137.255" transform="matrix(0.391, 0.921, -0.921, 0.391, 134.684, 9627.447)"/>
    <circle id="Ellipse_40" data-name="Ellipse 40" class="cls-8" cx="118.033" cy="118.033" r="118.033" transform="matrix(0.391, 0.921, -0.921, 0.391, 561.848, 9451.013)"/>
    <circle id="Ellipse_41" data-name="Ellipse 41" class="cls-9" cx="118.033" cy="118.033" r="118.033" transform="matrix(0.391, 0.921, -0.921, 0.391, 695.638, 9792.595)"/>
    <circle id="Ellipse_42" data-name="Ellipse 42" class="cls-10" cx="118.033" cy="118.033" r="118.033" transform="matrix(0.391, 0.921, -0.921, 0.391, 546.799, 9697.966)"/>
    <circle id="Ellipse_35-2" data-name="Ellipse 35" class="cls-15" cx="119.964" cy="119.964" r="119.964" transform="matrix(0.391, 0.921, -0.921, 0.391, 1172.934, 9590.758)"/>
    <circle id="Ellipse_36-2" data-name="Ellipse 36" class="cls-16" cx="119.964" cy="119.964" r="119.964" transform="matrix(0.391, 0.921, -0.921, 0.391, 823.634, 9523.204)"/>
    <circle id="Ellipse_37-2" data-name="Ellipse 37" class="cls-17" cx="119.964" cy="119.964" r="119.964" transform="matrix(0.391, 0.921, -0.921, 0.391, 1107.506, 9743.642)"/>
    <circle id="Ellipse_38-2" data-name="Ellipse 38" class="cls-18" cx="119.964" cy="119.964" r="119.964" transform="matrix(0.391, 0.921, -0.921, 0.391, 952.08, 9684.505)"/>
  </g>
</svg>
