<svg xmlns="http://www.w3.org/2000/svg" xmlns:xlink="http://www.w3.org/1999/xlink" viewBox="0 1539 1920 749">
  <defs>
    <style>
      .cls-1 {
        fill: none;
        stroke: #95989a;
      }

      .cls-2 {
        clip-path: url(#clip-path);
      }

      .cls-3, .cls-4, .cls-5 {
        fill: rgba(0,0,0,0);
      }

      .cls-3 {
        stroke: #05151f;
      }

      .cls-4 {
        stroke: #848484;
      }

      .cls-5 {
        stroke: #969696;
      }
    </style>
    <clipPath id="clip-path">
      <rect id="Rectangle_15" data-name="Rectangle 15" class="cls-1" width="1920" height="749" transform="translate(0 422)"/>
    </clipPath>
  </defs>
  <g id="Mask_Group_3" data-name="Mask Group 3" class="cls-2" transform="translate(0 1117)">
    <g id="Group_1" data-name="Group 1" transform="translate(115.29 -81.806) rotate(8)">
      <path id="Path_1" data-name="Path 1" class="cls-3" d="M-204.5,107.5c28.416-32.875,22.257-160,72-160s114.859,184,184,184,135.971-160,240-160,185.391,160,312.115,160,120.94-296,271.885-296,294.163,304,488,304,374.6-735.125,488-768" transform="translate(100.5 860.5)"/>
      <path id="Path_2" data-name="Path 2" class="cls-3" d="M-204.5,107.5c28.416-32.875,22.257-160,72-160s114.859,184,184,184,135.971-160,240-160,185.391,160,312.115,160,120.94-296,271.885-296,294.163,304,488,304,374.6-735.125,488-768" transform="translate(136.5 860.5)"/>
      <path id="Path_3" data-name="Path 3" class="cls-4" d="M-204.5,107.5c28.416-32.875,22.257-160,72-160s114.859,184,184,184,135.971-160,240-160,185.391,160,312.115,160,120.94-296,271.885-296,294.163,304,488,304,374.6-735.125,488-768" transform="translate(204.5 844.5)"/>
      <path id="Path_4" data-name="Path 4" class="cls-5" d="M-204.5,107.5c28.416-32.875,22.257-160,72-160s114.859,184,184,184,135.971-160,240-160,185.391,160,312.115,160,120.94-296,271.885-296,294.163,304,488,304,374.6-735.125,488-768" transform="translate(68.5 820.5)"/>
    </g>
  </g>
</svg>
